<?xml version="1.0" encoding="UTF-8"?>
<svg xmlns="http://www.w3.org/2000/svg" xmlns:xlink="http://www.w3.org/1999/xlink" width="893.04pt" height="232.47pt" viewBox="0 0 893.04 232.47" version="1.1">
<defs>
<clipPath id="clip1">
  <path d="M 755 65 L 893.039062 65 L 893.039062 232.46875 L 755 232.46875 Z M 755 65 "/>
</clipPath>
</defs>
<g id="surface1">
<path style=" stroke:none;fill-rule:nonzero;fill:rgb(100%,100%,100%);fill-opacity:1;" d="M 36.773438 66.492188 C 39.480469 70.667969 40.671875 74.394531 42.183594 82.253906 C 52.761719 71.925781 65.808594 66.492188 80.042969 66.492188 C 92.902344 66.492188 103.457031 70.667969 111.621094 79.191406 C 113.824219 81.328125 115.945312 84.082031 117.773438 86.789062 C 131.984375 72.234375 144.710938 66.492188 161.761719 66.492188 C 173.902344 66.492188 185.410156 70.125 192.4375 76.171875 C 201.214844 83.753906 203.996094 92.871094 203.996094 114.097656 L 203.996094 224.542969 L 164.546875 224.542969 L 164.546875 122.011719 C 164.546875 103.425781 162.34375 99.832031 151.765625 99.832031 C 144.183594 99.832031 133.523438 105.003906 124.773438 112.890625 L 124.773438 224.542969 L 86.277344 224.542969 L 86.277344 123.46875 C 86.277344 104.089844 83.464844 99.539062 72.171875 99.539062 C 64.667969 99.539062 54.273438 103.425781 45.523438 111.351562 L 45.523438 224.542969 L 5.804688 224.542969 L 5.804688 116.203125 C 5.804688 93.773438 4.269531 84.082031 0 76.464844 L 36.773438 66.492188 "/>
<path style=" stroke:none;fill-rule:nonzero;fill:rgb(100%,100%,100%);fill-opacity:1;" d="M 276.144531 111.964844 C 273.359375 120.183594 271.875 131.09375 271.875 146.578125 C 271.875 164.433594 273.703125 177.851562 277.015625 185.710938 C 280.675781 194.210938 289.824219 198.453125 297.644531 198.453125 C 315.25 198.453125 322.78125 182.691406 322.78125 145.980469 C 322.78125 125.035156 320.050781 111.351562 314.613281 104.355469 C 310.714844 99.238281 304.378906 96.1875 297.0625 96.1875 C 287.332031 96.1875 279.429688 102.230469 276.144531 111.964844 Z M 349.238281 89.535156 C 361.648438 104.089844 367.191406 121.070312 367.191406 146.25 C 367.191406 172.945312 361.066406 191.183594 347.675781 206.328125 C 335.90625 219.664062 320.394531 227.882812 296.476562 227.882812 C 254.242188 227.882812 226.695312 196.316406 226.695312 147.492188 C 226.695312 98.625 254.53125 66.148438 296.476562 66.148438 C 318.617188 66.148438 335.90625 73.757812 349.238281 89.535156 "/>
<path style=" stroke:none;fill-rule:nonzero;fill:rgb(100%,100%,100%);fill-opacity:1;" d="M 497.957031 69.199219 L 497.957031 97.113281 L 429.339844 196.316406 L 500.636719 196.316406 L 490.902344 224.542969 L 376.578125 224.542969 L 376.578125 199.367188 L 449.625 97.726562 L 382.675781 97.726562 L 382.675781 69.199219 L 497.957031 69.199219 "/>
<path style=" stroke:none;fill-rule:nonzero;fill:rgb(100%,100%,100%);fill-opacity:1;" d="M 561.9375 65.539062 L 561.9375 224.542969 L 521.289062 224.542969 L 521.289062 71.925781 Z M 566.710938 26.429688 C 566.710938 40.402344 555.597656 51.5625 541.546875 51.5625 C 527.945312 51.5625 516.757812 40.402344 516.757812 26.429688 C 516.757812 12.484375 528.316406 1.226562 542.234375 1.226562 C 555.863281 1.226562 566.710938 12.484375 566.710938 26.429688 "/>
<path style=" stroke:none;fill-rule:nonzero;fill:rgb(100%,100%,100%);fill-opacity:1;" d="M 635.964844 40.402344 L 635.964844 161.4375 C 635.964844 188.179688 636.28125 191.769531 638.722656 196.015625 C 640.257812 198.769531 643.546875 200.257812 646.941406 200.257812 C 648.398438 200.257812 649.273438 200.257812 651.472656 199.699219 L 658.421875 223.941406 C 651.472656 226.664062 642.964844 228.175781 634.164062 228.175781 C 616.820312 228.175781 602.875 220.007812 598.046875 206.988281 C 595 199.089844 594.335938 194.210938 594.335938 172.070312 L 594.335938 56.125 C 594.335938 35.8125 593.808594 23.40625 592.292969 9.394531 L 633.871094 -0.00390625 C 635.328125 8.480469 635.964844 18.503906 635.964844 40.402344 "/>
<path style=" stroke:none;fill-rule:nonzero;fill:rgb(100%,100%,100%);fill-opacity:1;" d="M 720.277344 40.402344 L 720.277344 161.4375 C 720.277344 188.179688 720.621094 191.769531 723.117188 196.015625 C 724.546875 198.769531 727.832031 200.257812 731.230469 200.257812 C 732.765625 200.257812 733.695312 200.257812 735.839844 199.699219 L 742.761719 223.941406 C 735.839844 226.664062 727.328125 228.175781 718.5 228.175781 C 701.1875 228.175781 687.214844 220.007812 682.363281 206.988281 C 679.261719 199.089844 678.757812 194.210938 678.757812 172.070312 L 678.757812 56.125 C 678.757812 35.8125 678.148438 23.40625 676.582031 9.394531 L 718.101562 -0.00390625 C 719.773438 8.480469 720.277344 18.503906 720.277344 40.402344 "/>
<g clip-path="url(#clip1)" clip-rule="nonzero">
<path style=" stroke:none;fill-rule:nonzero;fill:rgb(100%,100%,100%);fill-opacity:1;" d="M 836.753906 156.589844 C 808.648438 156.589844 798.785156 161.707031 798.785156 180.292969 C 798.785156 192.378906 806.476562 200.574219 816.785156 200.574219 C 824.34375 200.574219 831.980469 196.625 838 189.96875 L 838.664062 156.589844 Z M 784.070312 74.976562 C 799.183594 68.585938 812.179688 65.882812 826.492188 65.882812 C 852.636719 65.882812 870.507812 75.5625 876.628906 92.871094 C 878.644531 99.238281 879.574219 104.089844 879.390625 120.789062 L 878.40625 172.945312 C 878.40625 173.859375 878.40625 174.828125 878.40625 175.703125 C 878.40625 192.378906 881.164062 198.769531 893.042969 207.546875 L 871.460938 232.46875 C 861.96875 228.492188 853.511719 221.492188 849.558594 213.632812 C 846.5625 216.691406 843.195312 219.664062 840.121094 221.808594 C 832.589844 227.273438 821.589844 230.324219 808.859375 230.324219 C 774.261719 230.324219 755.464844 212.6875 755.464844 181.800781 C 755.464844 145.332031 780.703125 128.320312 830.125 128.320312 C 833.09375 128.320312 835.90625 128.320312 839.273438 128.667969 L 839.273438 122.332031 C 839.273438 105.003906 835.90625 99.238281 820.953125 99.238281 C 808.066406 99.238281 792.765625 105.574219 776.113281 116.828125 L 758.800781 87.691406 C 767.046875 82.519531 773.121094 79.511719 784.070312 74.976562 "/>
</g>
</g>
</svg>
